# OBJ generated by ONSHAPE BY PTC INC, 1.221 Units = meters
mtllib Car1 - Part 1.mtl
g Part 1
v 0.63805 -0.5 0 
v -0.63805 -0.5 0 
v -0.63805 0.5 0 
v 0.63805 0.5 0 
v 0.63851 -0.5 0.00996037 
v 0.639888 -0.5 0.0198358 
v 0.63851 0.5 0.00996037 
v 0.642171 -0.5 0.0295419 
v 0.639888 0.5 0.0198358 
v 0.64534 -0.5 0.038996 
v 0.642171 0.5 0.0295419 
v 0.649367 -0.5 0.0481175 
v 0.64534 0.5 0.038996 
v 0.654219 -0.5 0.0568284 
v 0.649367 0.5 0.0481175 
v 0.659854 -0.5 0.0650544 
v 0.654219 0.5 0.0568284 
v 0.666224 -0.5 0.0727254 
v 0.659854 0.5 0.0650544 
v 0.673275 -0.5 0.079776 
v 0.666224 0.5 0.0727254 
v 0.680946 -0.5 0.086146 
v 0.673275 0.5 0.079776 
v 0.689172 -0.5 0.0917809 
v 0.680946 0.5 0.086146 
v 0.697883 -0.5 0.0966329 
v 0.689172 0.5 0.0917809 
v 0.707004 -0.5 0.10066 
v 0.697883 0.5 0.0966329 
v 0.716458 -0.5 0.103829 
v 0.707004 0.5 0.10066 
v 0.726164 -0.5 0.106112 
v 0.716458 0.5 0.103829 
v 0.73604 -0.5 0.10749 
v 0.726164 0.5 0.106112 
v 0.746 -0.5 0.10795 
v 0.73604 0.5 0.10749 
v 0.75596 -0.5 0.10749 
v 0.746 0.5 0.10795 
v 0.765836 -0.5 0.106112 
v 0.75596 0.5 0.10749 
v 0.775542 -0.5 0.103829 
v 0.765836 0.5 0.106112 
v 0.784996 -0.5 0.10066 
v 0.775542 0.5 0.103829 
v 0.794117 -0.5 0.0966329 
v 0.784996 0.5 0.10066 
v 0.802828 -0.5 0.0917809 
v 0.794117 0.5 0.0966329 
v 0.811054 -0.5 0.086146 
v 0.802828 0.5 0.0917809 
v 0.818725 -0.5 0.079776 
v 0.811054 0.5 0.086146 
v 0.825776 -0.5 0.0727254 
v 0.818725 0.5 0.079776 
v 0.832146 -0.5 0.0650544 
v 0.825776 0.5 0.0727254 
v 0.837781 -0.5 0.0568284 
v 0.832146 0.5 0.0650544 
v 0.842633 -0.5 0.0481175 
v 0.837781 0.5 0.0568284 
v 0.84666 -0.5 0.038996 
v 0.842633 0.5 0.0481175 
v 0.849829 -0.5 0.0295419 
v 0.84666 0.5 0.038996 
v 0.852112 -0.5 0.0198358 
v 0.849829 0.5 0.0295419 
v 0.85349 -0.5 0.00996037 
v 0.852112 0.5 0.0198358 
v 0.85395 -0.5 0 
v 0.85349 0.5 0.00996037 
v 0.85395 0.5 0 
v 1 -0.5 1.249e-16 
v 1 0.5 1.249e-16 
v 0.855662 0.5 0.25 
v 0.855662 -0.5 0.25 
v 0.677862 0.5 0.25 
v 0.677862 -0.5 0.25 
v 0.472215 0.5 0.422559 
v 0.472215 -0.5 0.422559 
v -0.0357853 0.5 0.422559 
v -0.0357853 -0.5 0.422559 
v -0.282225 0.5 0.25 
v -0.282225 -0.5 0.25 
v -0.790225 0.5 0.25 
v -0.790225 -0.5 0.25 
v -0.775542 0.5 0.103829 
v -0.784996 0.5 0.10066 
v -0.75596 0.5 0.10749 
v -0.765836 0.5 0.106112 
v -0.794117 0.5 0.0966329 
v -0.802828 0.5 0.0917809 
v -0.707004 0.5 0.10066 
v -0.689172 0.5 0.0917809 
v -0.697883 0.5 0.0966329 
v -0.654219 0.5 0.0568284 
v -0.659854 0.5 0.0650544 
v -0.639888 0.5 0.0198358 
v -0.642171 0.5 0.0295419 
v -1 0.5 2.77556e-17 
v -0.825776 0.5 0.0727254 
v -0.73604 0.5 0.10749 
v -0.746 0.5 0.10795 
v -0.716458 0.5 0.103829 
v -0.726164 0.5 0.106112 
v -0.673275 0.5 0.079776 
v -0.680946 0.5 0.086146 
v -0.666224 0.5 0.0727254 
v -0.64534 0.5 0.038996 
v -0.649367 0.5 0.0481175 
v -0.832146 0.5 0.0650544 
v -0.849829 0.5 0.0295419 
v -0.852112 0.5 0.0198358 
v -0.842633 0.5 0.0481175 
v -0.84666 0.5 0.038996 
v -0.837781 0.5 0.0568284 
v -0.811054 0.5 0.086146 
v -0.818725 0.5 0.079776 
v -0.85349 0.5 0.00996037 
v -0.63851 0.5 0.00996037 
v -0.85395 0.5 0 
v -0.639888 -0.5 0.0198358 
v -0.707004 -0.5 0.10066 
v -0.697883 -0.5 0.0966329 
v -0.716458 -0.5 0.103829 
v -0.64534 -0.5 0.038996 
v -0.642171 -0.5 0.0295419 
v -0.654219 -0.5 0.0568284 
v -0.649367 -0.5 0.0481175 
v -0.666224 -0.5 0.0727254 
v -0.659854 -0.5 0.0650544 
v -0.73604 -0.5 0.10749 
v -0.726164 -0.5 0.106112 
v -0.775542 -0.5 0.103829 
v -0.765836 -0.5 0.106112 
v -0.794117 -0.5 0.0966329 
v -0.784996 -0.5 0.10066 
v -0.673275 -0.5 0.079776 
v -0.75596 -0.5 0.10749 
v -0.746 -0.5 0.10795 
v -0.811054 -0.5 0.086146 
v -0.802828 -0.5 0.0917809 
v -1 -0.5 2.77556e-17 
v -0.832146 -0.5 0.0650544 
v -0.825776 -0.5 0.0727254 
v -0.689172 -0.5 0.0917809 
v -0.680946 -0.5 0.086146 
v -0.837781 -0.5 0.0568284 
v -0.818725 -0.5 0.079776 
v -0.842633 -0.5 0.0481175 
v -0.849829 -0.5 0.0295419 
v -0.84666 -0.5 0.038996 
v -0.85349 -0.5 0.00996037 
v -0.852112 -0.5 0.0198358 
v -0.85395 -0.5 0 
v -0.63851 -0.5 0.00996037 
vn 0 0 -1 
vn 0.995734 0 -0.0922684 
vn 1 0 -1.83697e-16 
vn 0.982973 0 -0.18375 
vn 0.995734 0 -0.0922684 
vn 0.961826 0 -0.273663 
vn 0.982973 0 -0.18375 
vn 0.932472 0 -0.361242 
vn 0.961826 0 -0.273663 
vn 0.895163 0 -0.445738 
vn 0.932472 0 -0.361242 
vn 0.850217 0 -0.526432 
vn 0.895163 0 -0.445738 
vn 0.798017 0 -0.602635 
vn 0.850217 0 -0.526432 
vn 0.739009 0 -0.673696 
vn 0.798017 0 -0.602635 
vn 0.673696 0 -0.739009 
vn 0.739009 0 -0.673696 
vn 0.602635 0 -0.798017 
vn 0.673696 0 -0.739009 
vn 0.526432 0 -0.850217 
vn 0.602635 0 -0.798017 
vn 0.445738 0 -0.895163 
vn 0.526432 0 -0.850217 
vn 0.361242 0 -0.932472 
vn 0.445738 0 -0.895163 
vn 0.273663 0 -0.961826 
vn 0.361242 0 -0.932472 
vn 0.18375 0 -0.982973 
vn 0.273663 0 -0.961826 
vn 0.0922684 0 -0.995734 
vn 0.18375 0 -0.982973 
vn -1.22465e-16 0 -1 
vn 0.0922684 0 -0.995734 
vn -0.0922684 0 -0.995734 
vn -1.22465e-16 0 -1 
vn -0.18375 0 -0.982973 
vn -0.0922684 0 -0.995734 
vn -0.273663 0 -0.961826 
vn -0.18375 0 -0.982973 
vn -0.361242 0 -0.932472 
vn -0.273663 0 -0.961826 
vn -0.445738 0 -0.895163 
vn -0.361242 0 -0.932472 
vn -0.526432 0 -0.850217 
vn -0.445738 0 -0.895163 
vn -0.602635 0 -0.798017 
vn -0.526432 0 -0.850217 
vn -0.673696 0 -0.739009 
vn -0.602635 0 -0.798017 
vn -0.739009 0 -0.673696 
vn -0.673696 0 -0.739009 
vn -0.798017 0 -0.602635 
vn -0.739009 0 -0.673696 
vn -0.850217 0 -0.526432 
vn -0.798017 0 -0.602635 
vn -0.895163 0 -0.445738 
vn -0.850217 0 -0.526432 
vn -0.932472 0 -0.361242 
vn -0.895163 0 -0.445738 
vn -0.961826 0 -0.273663 
vn -0.932472 0 -0.361242 
vn -0.982973 0 -0.18375 
vn -0.961826 0 -0.273663 
vn -0.995734 0 -0.0922684 
vn -0.982973 0 -0.18375 
vn -1 0 6.12323e-17 
vn -0.995734 0 -0.0922684 
vn 0 0 -1 
vn 0.866025 0 0.5 
vn 0 0 1 
vn 0.642788 0 0.766044 
vn -0.573576 0 0.819152 
vn 0 0 1 
vn 0 1 0 
vn 0 -1 0 
vn -0.766044 0 0.642788 
vn 0 0 -1 
vn 0.995734 0 -0.0922684 
vn 1 0 -1.83697e-16 
vn 0.982973 0 -0.18375 
vn 0.995734 0 -0.0922684 
vn 0.961826 0 -0.273663 
vn 0.982973 0 -0.18375 
vn 0.932472 0 -0.361242 
vn 0.961826 0 -0.273663 
vn 0.895163 0 -0.445738 
vn 0.932472 0 -0.361242 
vn 0.850217 0 -0.526432 
vn 0.895163 0 -0.445738 
vn 0.798017 0 -0.602635 
vn 0.850217 0 -0.526432 
vn 0.739009 0 -0.673696 
vn 0.798017 0 -0.602635 
vn 0.673696 0 -0.739009 
vn 0.739009 0 -0.673696 
vn 0.602635 0 -0.798017 
vn 0.673696 0 -0.739009 
vn 0.526432 0 -0.850217 
vn 0.602635 0 -0.798017 
vn 0.445738 0 -0.895163 
vn 0.526432 0 -0.850217 
vn 0.361242 0 -0.932472 
vn 0.445738 0 -0.895163 
vn 0.273663 0 -0.961826 
vn 0.361242 0 -0.932472 
vn 0.18375 0 -0.982973 
vn 0.273663 0 -0.961826 
vn 0.0922684 0 -0.995734 
vn 0.18375 0 -0.982973 
vn -1.22465e-16 0 -1 
vn 0.0922684 0 -0.995734 
vn -0.0922684 0 -0.995734 
vn -1.22465e-16 0 -1 
vn -0.18375 0 -0.982973 
vn -0.0922684 0 -0.995734 
vn -0.273663 0 -0.961826 
vn -0.18375 0 -0.982973 
vn -0.361242 0 -0.932472 
vn -0.273663 0 -0.961826 
vn -0.445738 0 -0.895163 
vn -0.361242 0 -0.932472 
vn -0.526432 0 -0.850217 
vn -0.445738 0 -0.895163 
vn -0.602635 0 -0.798017 
vn -0.526432 0 -0.850217 
vn -0.673696 0 -0.739009 
vn -0.602635 0 -0.798017 
vn -0.739009 0 -0.673696 
vn -0.673696 0 -0.739009 
vn -0.798017 0 -0.602635 
vn -0.739009 0 -0.673696 
vn -0.850217 0 -0.526432 
vn -0.798017 0 -0.602635 
vn -0.895163 0 -0.445738 
vn -0.850217 0 -0.526432 
vn -0.932472 0 -0.361242 
vn -0.895163 0 -0.445738 
vn -0.961826 0 -0.273663 
vn -0.932472 0 -0.361242 
vn -0.982973 0 -0.18375 
vn -0.961826 0 -0.273663 
vn -0.995734 0 -0.0922684 
vn -0.982973 0 -0.18375 
vn -1 0 6.12323e-17 
vn -0.995734 0 -0.0922684 
usemtl 0.615686_0.811765_0.929412_0.000000_0.000000
o mesh0
f 1//1 2//1 3//1 
f 3//1 4//1 1//1 
o mesh1
f 5//2 1//3 4//3 
f 6//4 5//2 7//5 
f 8//6 6//4 9//7 
f 10//8 8//6 11//9 
f 12//10 10//8 13//11 
f 14//12 12//10 15//13 
f 16//14 14//12 17//15 
f 18//16 16//14 19//17 
f 20//18 18//16 21//19 
f 22//20 20//18 23//21 
f 24//22 22//20 25//23 
f 26//24 24//22 27//25 
f 28//26 26//24 29//27 
f 30//28 28//26 31//29 
f 32//30 30//28 33//31 
f 34//32 32//30 35//33 
f 36//34 34//32 37//35 
f 38//36 36//34 39//37 
f 40//38 38//36 41//39 
f 42//40 40//38 43//41 
f 44//42 42//40 45//43 
f 46//44 44//42 47//45 
f 48//46 46//44 49//47 
f 50//48 48//46 51//49 
f 52//50 50//48 53//51 
f 54//52 52//50 55//53 
f 56//54 54//52 57//55 
f 58//56 56//54 59//57 
f 60//58 58//56 61//59 
f 62//60 60//58 63//61 
f 64//62 62//60 65//63 
f 66//64 64//62 67//65 
f 68//66 66//64 69//67 
f 70//68 68//66 71//69 
f 71//69 72//68 70//68 
f 69//67 71//69 68//66 
f 67//65 69//67 66//64 
f 65//63 67//65 64//62 
f 63//61 65//63 62//60 
f 61//59 63//61 60//58 
f 59//57 61//59 58//56 
f 57//55 59//57 56//54 
f 55//53 57//55 54//52 
f 53//51 55//53 52//50 
f 51//49 53//51 50//48 
f 49//47 51//49 48//46 
f 47//45 49//47 46//44 
f 45//43 47//45 44//42 
f 43//41 45//43 42//40 
f 41//39 43//41 40//38 
f 39//37 41//39 38//36 
f 37//35 39//37 36//34 
f 35//33 37//35 34//32 
f 33//31 35//33 32//30 
f 31//29 33//31 30//28 
f 29//27 31//29 28//26 
f 27//25 29//27 26//24 
f 25//23 27//25 24//22 
f 23//21 25//23 22//20 
f 21//19 23//21 20//18 
f 19//17 21//19 18//16 
f 17//15 19//17 16//14 
f 15//13 17//15 14//12 
f 13//11 15//13 12//10 
f 11//9 13//11 10//8 
f 9//7 11//9 8//6 
f 7//5 9//7 6//4 
f 4//3 7//5 5//2 
o mesh2
f 73//70 70//70 72//70 
f 72//70 74//70 73//70 
o mesh3
f 75//71 76//71 73//71 
f 73//71 74//71 75//71 
o mesh4
f 77//72 78//72 76//72 
f 76//72 75//72 77//72 
o mesh5
f 79//73 80//73 78//73 
f 78//73 77//73 79//73 
o mesh6
f 81//72 82//72 80//72 
f 80//72 79//72 81//72 
o mesh7
f 83//74 84//74 82//74 
f 82//74 81//74 83//74 
o mesh8
f 85//75 86//75 84//75 
f 84//75 83//75 85//75 
o mesh9
f 85//76 87//76 88//76 
f 85//76 89//76 90//76 
f 77//76 33//76 31//76 
f 77//76 37//76 35//76 
f 75//76 74//76 61//76 
f 85//76 91//76 92//76 
f 90//76 87//76 85//76 
f 85//76 83//76 93//76 
f 83//76 94//76 95//76 
f 83//76 96//76 97//76 
f 98//76 99//76 83//76 
f 77//76 29//76 27//76 
f 35//76 33//76 77//76 
f 77//76 75//76 41//76 
f 75//76 51//76 49//76 
f 61//76 59//76 75//76 
f 100//76 85//76 101//76 
f 88//76 91//76 85//76 
f 85//76 102//76 103//76 
f 85//76 104//76 105//76 
f 95//76 93//76 83//76 
f 83//76 106//76 107//76 
f 97//76 108//76 83//76 
f 83//76 109//76 110//76 
f 83//76 4//76 98//76 
f 31//76 29//76 77//76 
f 41//76 39//76 77//76 
f 75//76 45//76 43//76 
f 49//76 47//76 75//76 
f 75//76 55//76 53//76 
f 59//76 57//76 75//76 
f 74//76 65//76 63//76 
f 74//76 69//76 67//76 
f 101//76 111//76 100//76 
f 103//76 89//76 85//76 
f 93//76 104//76 85//76 
f 108//76 106//76 83//76 
f 99//76 109//76 83//76 
f 77//76 21//76 19//76 
f 39//76 37//76 77//76 
f 47//76 45//76 75//76 
f 57//76 55//76 75//76 
f 67//76 65//76 74//76 
f 100//76 112//76 113//76 
f 100//76 114//76 115//76 
f 111//76 116//76 100//76 
f 85//76 117//76 118//76 
f 105//76 102//76 85//76 
f 110//76 96//76 83//76 
f 19//76 17//76 77//76 
f 77//76 25//76 23//76 
f 43//76 41//76 75//76 
f 63//76 61//76 74//76 
f 9//76 81//76 79//76 
f 115//76 112//76 100//76 
f 118//76 101//76 85//76 
f 107//76 94//76 83//76 
f 77//76 15//76 13//76 
f 23//76 21//76 77//76 
f 53//76 51//76 75//76 
f 9//76 83//76 81//76 
f 113//76 119//76 100//76 
f 92//76 117//76 85//76 
f 13//76 11//76 77//76 
f 27//76 25//76 77//76 
f 79//76 77//76 9//76 
f 116//76 114//76 100//76 
f 4//76 3//76 120//76 
f 17//76 15//76 77//76 
f 74//76 72//76 71//76 
f 9//76 7//76 83//76 
f 120//76 98//76 4//76 
f 71//76 69//76 74//76 
f 119//76 121//76 100//76 
f 7//76 4//76 83//76 
f 11//76 9//76 77//76 
o mesh10
f 122//77 1//77 84//77 
f 84//77 123//77 124//77 
f 86//77 125//77 123//77 
f 84//77 126//77 127//77 
f 84//77 128//77 129//77 
f 84//77 130//77 131//77 
f 123//77 84//77 86//77 
f 86//77 132//77 133//77 
f 86//77 134//77 135//77 
f 86//77 136//77 137//77 
f 76//77 56//77 58//77 
f 76//77 44//77 46//77 
f 129//77 126//77 84//77 
f 84//77 138//77 130//77 
f 133//77 125//77 86//77 
f 86//77 139//77 140//77 
f 137//77 134//77 86//77 
f 86//77 141//77 142//77 
f 143//77 144//77 145//77 
f 73//77 62//77 64//77 
f 73//77 58//77 60//77 
f 76//77 54//77 56//77 
f 76//77 42//77 44//77 
f 76//77 38//77 40//77 
f 78//77 36//77 38//77 
f 78//77 30//77 32//77 
f 78//77 26//77 28//77 
f 131//77 128//77 84//77 
f 84//77 146//77 147//77 
f 140//77 132//77 86//77 
f 142//77 136//77 86//77 
f 143//77 148//77 144//77 
f 60//77 62//77 73//77 
f 76//77 52//77 54//77 
f 40//77 42//77 76//77 
f 78//77 34//77 36//77 
f 28//77 30//77 78//77 
f 78//77 22//77 24//77 
f 147//77 138//77 84//77 
f 135//77 139//77 86//77 
f 86//77 145//77 149//77 
f 143//77 150//77 148//77 
f 143//77 151//77 152//77 
f 143//77 153//77 154//77 
f 58//77 73//77 76//77 
f 76//77 48//77 50//77 
f 38//77 76//77 78//77 
f 24//77 26//77 78//77 
f 78//77 14//77 16//77 
f 124//77 146//77 84//77 
f 145//77 86//77 143//77 
f 154//77 151//77 143//77 
f 6//77 78//77 80//77 
f 50//77 52//77 76//77 
f 32//77 34//77 78//77 
f 78//77 18//77 20//77 
f 78//77 12//77 14//77 
f 149//77 141//77 86//77 
f 143//77 155//77 153//77 
f 80//77 82//77 6//77 
f 46//77 48//77 76//77 
f 16//77 18//77 78//77 
f 78//77 6//77 8//77 
f 1//77 122//77 156//77 
f 152//77 150//77 143//77 
f 84//77 5//77 6//77 
f 20//77 22//77 78//77 
f 8//77 10//77 78//77 
f 84//77 127//77 122//77 
f 84//77 1//77 5//77 
f 73//77 66//77 68//77 
f 10//77 12//77 78//77 
f 82//77 84//77 6//77 
f 64//77 66//77 73//77 
f 68//77 70//77 73//77 
f 156//77 2//77 1//77 
o mesh11
f 100//78 143//78 86//78 
f 86//78 85//78 100//78 
o mesh12
f 100//79 121//79 155//79 
f 155//79 143//79 100//79 
o mesh13
f 153//80 155//81 121//81 
f 154//82 153//80 119//83 
f 151//84 154//82 113//85 
f 152//86 151//84 112//87 
f 150//88 152//86 115//89 
f 148//90 150//88 114//91 
f 144//92 148//90 116//93 
f 145//94 144//92 111//95 
f 149//96 145//94 101//97 
f 141//98 149//96 118//99 
f 142//100 141//98 117//101 
f 136//102 142//100 92//103 
f 137//104 136//102 91//105 
f 134//106 137//104 88//107 
f 135//108 134//106 87//109 
f 139//110 135//108 90//111 
f 140//112 139//110 89//113 
f 132//114 140//112 103//115 
f 133//116 132//114 102//117 
f 125//118 133//116 105//119 
f 123//120 125//118 104//121 
f 124//122 123//120 93//123 
f 146//124 124//122 95//125 
f 147//126 146//124 94//127 
f 138//128 147//126 107//129 
f 130//130 138//128 106//131 
f 131//132 130//130 108//133 
f 128//134 131//132 97//135 
f 129//136 128//134 96//137 
f 126//138 129//136 110//139 
f 127//140 126//138 109//141 
f 122//142 127//140 99//143 
f 156//144 122//142 98//145 
f 2//146 156//144 120//147 
f 120//147 3//146 2//146 
f 98//145 120//147 156//144 
f 99//143 98//145 122//142 
f 109//141 99//143 127//140 
f 110//139 109//141 126//138 
f 96//137 110//139 129//136 
f 97//135 96//137 128//134 
f 108//133 97//135 131//132 
f 106//131 108//133 130//130 
f 107//129 106//131 138//128 
f 94//127 107//129 147//126 
f 95//125 94//127 146//124 
f 93//123 95//125 124//122 
f 104//121 93//123 123//120 
f 105//119 104//121 125//118 
f 102//117 105//119 133//116 
f 103//115 102//117 132//114 
f 89//113 103//115 140//112 
f 90//111 89//113 139//110 
f 87//109 90//111 135//108 
f 88//107 87//109 134//106 
f 91//105 88//107 137//104 
f 92//103 91//105 136//102 
f 117//101 92//103 142//100 
f 118//99 117//101 141//98 
f 101//97 118//99 149//96 
f 111//95 101//97 145//94 
f 116//93 111//95 144//92 
f 114//91 116//93 148//90 
f 115//89 114//91 150//88 
f 112//87 115//89 152//86 
f 113//85 112//87 151//84 
f 119//83 113//85 154//82 
f 121//81 119//83 153//80 
