# OBJ generated by ONSHAPE BY PTC INC, 1.221 Units = meters
mtllib Car1.mtl
g Part 1
v 0.63805 -0.5 0 
v -0.63805 -0.5 0 
v -0.63805 0.5 0 
v 0.63805 0.5 0 
v 0.63851 -0.5 0.00996037 
v 0.639888 -0.5 0.0198358 
v 0.63851 0.5 0.00996037 
v 0.642171 -0.5 0.0295419 
v 0.639888 0.5 0.0198358 
v 0.64534 -0.5 0.038996 
v 0.642171 0.5 0.0295419 
v 0.649367 -0.5 0.0481175 
v 0.64534 0.5 0.038996 
v 0.654219 -0.5 0.0568284 
v 0.649367 0.5 0.0481175 
v 0.659854 -0.5 0.0650544 
v 0.654219 0.5 0.0568284 
v 0.666224 -0.5 0.0727254 
v 0.659854 0.5 0.0650544 
v 0.673275 -0.5 0.079776 
v 0.666224 0.5 0.0727254 
v 0.680946 -0.5 0.086146 
v 0.673275 0.5 0.079776 
v 0.689172 -0.5 0.0917809 
v 0.680946 0.5 0.086146 
v 0.697883 -0.5 0.0966329 
v 0.689172 0.5 0.0917809 
v 0.707004 -0.5 0.10066 
v 0.697883 0.5 0.0966329 
v 0.716458 -0.5 0.103829 
v 0.707004 0.5 0.10066 
v 0.726164 -0.5 0.106112 
v 0.716458 0.5 0.103829 
v 0.73604 -0.5 0.10749 
v 0.726164 0.5 0.106112 
v 0.746 -0.5 0.10795 
v 0.73604 0.5 0.10749 
v 0.75596 -0.5 0.10749 
v 0.746 0.5 0.10795 
v 0.765836 -0.5 0.106112 
v 0.75596 0.5 0.10749 
v 0.775542 -0.5 0.103829 
v 0.765836 0.5 0.106112 
v 0.784996 -0.5 0.10066 
v 0.775542 0.5 0.103829 
v 0.794117 -0.5 0.0966329 
v 0.784996 0.5 0.10066 
v 0.802828 -0.5 0.0917809 
v 0.794117 0.5 0.0966329 
v 0.811054 -0.5 0.086146 
v 0.802828 0.5 0.0917809 
v 0.818725 -0.5 0.079776 
v 0.811054 0.5 0.086146 
v 0.825776 -0.5 0.0727254 
v 0.818725 0.5 0.079776 
v 0.832146 -0.5 0.0650544 
v 0.825776 0.5 0.0727254 
v 0.837781 -0.5 0.0568284 
v 0.832146 0.5 0.0650544 
v 0.842633 -0.5 0.0481175 
v 0.837781 0.5 0.0568284 
v 0.84666 -0.5 0.038996 
v 0.842633 0.5 0.0481175 
v 0.849829 -0.5 0.0295419 
v 0.84666 0.5 0.038996 
v 0.852112 -0.5 0.0198358 
v 0.849829 0.5 0.0295419 
v 0.85349 -0.5 0.00996037 
v 0.852112 0.5 0.0198358 
v 0.85395 -0.5 0 
v 0.85349 0.5 0.00996037 
v 0.85395 0.5 0 
v 1 -0.5 1.249e-16 
v 1 0.5 1.249e-16 
v 0.855662 0.5 0.25 
v 0.855662 -0.5 0.25 
v 0.677862 0.5 0.25 
v 0.677862 -0.5 0.25 
v 0.472215 0.5 0.422559 
v 0.472215 -0.5 0.422559 
v -0.0357853 0.5 0.422559 
v -0.0357853 -0.5 0.422559 
v -0.282225 0.5 0.25 
v -0.282225 -0.5 0.25 
v -0.790225 0.5 0.25 
v -0.790225 -0.5 0.25 
v -0.775542 0.5 0.103829 
v -0.784996 0.5 0.10066 
v -0.75596 0.5 0.10749 
v -0.765836 0.5 0.106112 
v -0.794117 0.5 0.0966329 
v -0.802828 0.5 0.0917809 
v -0.707004 0.5 0.10066 
v -0.689172 0.5 0.0917809 
v -0.697883 0.5 0.0966329 
v -0.654219 0.5 0.0568284 
v -0.659854 0.5 0.0650544 
v -0.639888 0.5 0.0198358 
v -0.642171 0.5 0.0295419 
v -1 0.5 2.77556e-17 
v -0.825776 0.5 0.0727254 
v -0.73604 0.5 0.10749 
v -0.746 0.5 0.10795 
v -0.716458 0.5 0.103829 
v -0.726164 0.5 0.106112 
v -0.673275 0.5 0.079776 
v -0.680946 0.5 0.086146 
v -0.666224 0.5 0.0727254 
v -0.64534 0.5 0.038996 
v -0.649367 0.5 0.0481175 
v -0.832146 0.5 0.0650544 
v -0.849829 0.5 0.0295419 
v -0.852112 0.5 0.0198358 
v -0.842633 0.5 0.0481175 
v -0.84666 0.5 0.038996 
v -0.837781 0.5 0.0568284 
v -0.811054 0.5 0.086146 
v -0.818725 0.5 0.079776 
v -0.85349 0.5 0.00996037 
v -0.63851 0.5 0.00996037 
v -0.85395 0.5 0 
v -0.639888 -0.5 0.0198358 
v -0.707004 -0.5 0.10066 
v -0.697883 -0.5 0.0966329 
v -0.716458 -0.5 0.103829 
v -0.64534 -0.5 0.038996 
v -0.642171 -0.5 0.0295419 
v -0.654219 -0.5 0.0568284 
v -0.649367 -0.5 0.0481175 
v -0.666224 -0.5 0.0727254 
v -0.659854 -0.5 0.0650544 
v -0.73604 -0.5 0.10749 
v -0.726164 -0.5 0.106112 
v -0.775542 -0.5 0.103829 
v -0.765836 -0.5 0.106112 
v -0.794117 -0.5 0.0966329 
v -0.784996 -0.5 0.10066 
v -0.673275 -0.5 0.079776 
v -0.75596 -0.5 0.10749 
v -0.746 -0.5 0.10795 
v -0.811054 -0.5 0.086146 
v -0.802828 -0.5 0.0917809 
v -1 -0.5 2.77556e-17 
v -0.832146 -0.5 0.0650544 
v -0.825776 -0.5 0.0727254 
v -0.689172 -0.5 0.0917809 
v -0.680946 -0.5 0.086146 
v -0.837781 -0.5 0.0568284 
v -0.818725 -0.5 0.079776 
v -0.842633 -0.5 0.0481175 
v -0.849829 -0.5 0.0295419 
v -0.84666 -0.5 0.038996 
v -0.85349 -0.5 0.00996037 
v -0.852112 -0.5 0.0198358 
v -0.85395 -0.5 0 
v -0.63851 -0.5 0.00996037 
vn 0 0 -1 
vn 0.995734 0 -0.0922684 
vn 1 0 -1.83697e-16 
vn 0.982973 0 -0.18375 
vn 0.995734 0 -0.0922684 
vn 0.961826 0 -0.273663 
vn 0.982973 0 -0.18375 
vn 0.932472 0 -0.361242 
vn 0.961826 0 -0.273663 
vn 0.895163 0 -0.445738 
vn 0.932472 0 -0.361242 
vn 0.850217 0 -0.526432 
vn 0.895163 0 -0.445738 
vn 0.798017 0 -0.602635 
vn 0.850217 0 -0.526432 
vn 0.739009 0 -0.673696 
vn 0.798017 0 -0.602635 
vn 0.673696 0 -0.739009 
vn 0.739009 0 -0.673696 
vn 0.602635 0 -0.798017 
vn 0.673696 0 -0.739009 
vn 0.526432 0 -0.850217 
vn 0.602635 0 -0.798017 
vn 0.445738 0 -0.895163 
vn 0.526432 0 -0.850217 
vn 0.361242 0 -0.932472 
vn 0.445738 0 -0.895163 
vn 0.273663 0 -0.961826 
vn 0.361242 0 -0.932472 
vn 0.18375 0 -0.982973 
vn 0.273663 0 -0.961826 
vn 0.0922684 0 -0.995734 
vn 0.18375 0 -0.982973 
vn -1.22465e-16 0 -1 
vn 0.0922684 0 -0.995734 
vn -0.0922684 0 -0.995734 
vn -1.22465e-16 0 -1 
vn -0.18375 0 -0.982973 
vn -0.0922684 0 -0.995734 
vn -0.273663 0 -0.961826 
vn -0.18375 0 -0.982973 
vn -0.361242 0 -0.932472 
vn -0.273663 0 -0.961826 
vn -0.445738 0 -0.895163 
vn -0.361242 0 -0.932472 
vn -0.526432 0 -0.850217 
vn -0.445738 0 -0.895163 
vn -0.602635 0 -0.798017 
vn -0.526432 0 -0.850217 
vn -0.673696 0 -0.739009 
vn -0.602635 0 -0.798017 
vn -0.739009 0 -0.673696 
vn -0.673696 0 -0.739009 
vn -0.798017 0 -0.602635 
vn -0.739009 0 -0.673696 
vn -0.850217 0 -0.526432 
vn -0.798017 0 -0.602635 
vn -0.895163 0 -0.445738 
vn -0.850217 0 -0.526432 
vn -0.932472 0 -0.361242 
vn -0.895163 0 -0.445738 
vn -0.961826 0 -0.273663 
vn -0.932472 0 -0.361242 
vn -0.982973 0 -0.18375 
vn -0.961826 0 -0.273663 
vn -0.995734 0 -0.0922684 
vn -0.982973 0 -0.18375 
vn -1 0 6.12323e-17 
vn -0.995734 0 -0.0922684 
vn 0 0 -1 
vn 0.866025 0 0.5 
vn 0 0 1 
vn 0.642788 0 0.766044 
vn -0.573576 0 0.819152 
vn 0 0 1 
vn 0 1 0 
vn 0 -1 0 
vn -0.766044 0 0.642788 
vn 0 0 -1 
vn 0.995734 0 -0.0922684 
vn 1 0 -1.83697e-16 
vn 0.982973 0 -0.18375 
vn 0.995734 0 -0.0922684 
vn 0.961826 0 -0.273663 
vn 0.982973 0 -0.18375 
vn 0.932472 0 -0.361242 
vn 0.961826 0 -0.273663 
vn 0.895163 0 -0.445738 
vn 0.932472 0 -0.361242 
vn 0.850217 0 -0.526432 
vn 0.895163 0 -0.445738 
vn 0.798017 0 -0.602635 
vn 0.850217 0 -0.526432 
vn 0.739009 0 -0.673696 
vn 0.798017 0 -0.602635 
vn 0.673696 0 -0.739009 
vn 0.739009 0 -0.673696 
vn 0.602635 0 -0.798017 
vn 0.673696 0 -0.739009 
vn 0.526432 0 -0.850217 
vn 0.602635 0 -0.798017 
vn 0.445738 0 -0.895163 
vn 0.526432 0 -0.850217 
vn 0.361242 0 -0.932472 
vn 0.445738 0 -0.895163 
vn 0.273663 0 -0.961826 
vn 0.361242 0 -0.932472 
vn 0.18375 0 -0.982973 
vn 0.273663 0 -0.961826 
vn 0.0922684 0 -0.995734 
vn 0.18375 0 -0.982973 
vn -1.22465e-16 0 -1 
vn 0.0922684 0 -0.995734 
vn -0.0922684 0 -0.995734 
vn -1.22465e-16 0 -1 
vn -0.18375 0 -0.982973 
vn -0.0922684 0 -0.995734 
vn -0.273663 0 -0.961826 
vn -0.18375 0 -0.982973 
vn -0.361242 0 -0.932472 
vn -0.273663 0 -0.961826 
vn -0.445738 0 -0.895163 
vn -0.361242 0 -0.932472 
vn -0.526432 0 -0.850217 
vn -0.445738 0 -0.895163 
vn -0.602635 0 -0.798017 
vn -0.526432 0 -0.850217 
vn -0.673696 0 -0.739009 
vn -0.602635 0 -0.798017 
vn -0.739009 0 -0.673696 
vn -0.673696 0 -0.739009 
vn -0.798017 0 -0.602635 
vn -0.739009 0 -0.673696 
vn -0.850217 0 -0.526432 
vn -0.798017 0 -0.602635 
vn -0.895163 0 -0.445738 
vn -0.850217 0 -0.526432 
vn -0.932472 0 -0.361242 
vn -0.895163 0 -0.445738 
vn -0.961826 0 -0.273663 
vn -0.932472 0 -0.361242 
vn -0.982973 0 -0.18375 
vn -0.961826 0 -0.273663 
vn -0.995734 0 -0.0922684 
vn -0.982973 0 -0.18375 
vn -1 0 6.12323e-17 
vn -0.995734 0 -0.0922684 
usemtl 0.615686_0.811765_0.929412_0.000000_0.000000
o mesh0
f 1//1 2//1 3//1 
f 3//1 4//1 1//1 
o mesh1
f 5//2 1//3 4//3 
f 6//4 5//2 7//5 
f 8//6 6//4 9//7 
f 10//8 8//6 11//9 
f 12//10 10//8 13//11 
f 14//12 12//10 15//13 
f 16//14 14//12 17//15 
f 18//16 16//14 19//17 
f 20//18 18//16 21//19 
f 22//20 20//18 23//21 
f 24//22 22//20 25//23 
f 26//24 24//22 27//25 
f 28//26 26//24 29//27 
f 30//28 28//26 31//29 
f 32//30 30//28 33//31 
f 34//32 32//30 35//33 
f 36//34 34//32 37//35 
f 38//36 36//34 39//37 
f 40//38 38//36 41//39 
f 42//40 40//38 43//41 
f 44//42 42//40 45//43 
f 46//44 44//42 47//45 
f 48//46 46//44 49//47 
f 50//48 48//46 51//49 
f 52//50 50//48 53//51 
f 54//52 52//50 55//53 
f 56//54 54//52 57//55 
f 58//56 56//54 59//57 
f 60//58 58//56 61//59 
f 62//60 60//58 63//61 
f 64//62 62//60 65//63 
f 66//64 64//62 67//65 
f 68//66 66//64 69//67 
f 70//68 68//66 71//69 
f 71//69 72//68 70//68 
f 69//67 71//69 68//66 
f 67//65 69//67 66//64 
f 65//63 67//65 64//62 
f 63//61 65//63 62//60 
f 61//59 63//61 60//58 
f 59//57 61//59 58//56 
f 57//55 59//57 56//54 
f 55//53 57//55 54//52 
f 53//51 55//53 52//50 
f 51//49 53//51 50//48 
f 49//47 51//49 48//46 
f 47//45 49//47 46//44 
f 45//43 47//45 44//42 
f 43//41 45//43 42//40 
f 41//39 43//41 40//38 
f 39//37 41//39 38//36 
f 37//35 39//37 36//34 
f 35//33 37//35 34//32 
f 33//31 35//33 32//30 
f 31//29 33//31 30//28 
f 29//27 31//29 28//26 
f 27//25 29//27 26//24 
f 25//23 27//25 24//22 
f 23//21 25//23 22//20 
f 21//19 23//21 20//18 
f 19//17 21//19 18//16 
f 17//15 19//17 16//14 
f 15//13 17//15 14//12 
f 13//11 15//13 12//10 
f 11//9 13//11 10//8 
f 9//7 11//9 8//6 
f 7//5 9//7 6//4 
f 4//3 7//5 5//2 
o mesh2
f 73//70 70//70 72//70 
f 72//70 74//70 73//70 
o mesh3
f 75//71 76//71 73//71 
f 73//71 74//71 75//71 
o mesh4
f 77//72 78//72 76//72 
f 76//72 75//72 77//72 
o mesh5
f 79//73 80//73 78//73 
f 78//73 77//73 79//73 
o mesh6
f 81//72 82//72 80//72 
f 80//72 79//72 81//72 
o mesh7
f 83//74 84//74 82//74 
f 82//74 81//74 83//74 
o mesh8
f 85//75 86//75 84//75 
f 84//75 83//75 85//75 
o mesh9
f 85//76 87//76 88//76 
f 85//76 89//76 90//76 
f 77//76 33//76 31//76 
f 77//76 37//76 35//76 
f 75//76 74//76 61//76 
f 85//76 91//76 92//76 
f 90//76 87//76 85//76 
f 85//76 83//76 93//76 
f 83//76 94//76 95//76 
f 83//76 96//76 97//76 
f 98//76 99//76 83//76 
f 77//76 29//76 27//76 
f 35//76 33//76 77//76 
f 77//76 75//76 41//76 
f 75//76 51//76 49//76 
f 61//76 59//76 75//76 
f 100//76 85//76 101//76 
f 88//76 91//76 85//76 
f 85//76 102//76 103//76 
f 85//76 104//76 105//76 
f 95//76 93//76 83//76 
f 83//76 106//76 107//76 
f 97//76 108//76 83//76 
f 83//76 109//76 110//76 
f 83//76 4//76 98//76 
f 31//76 29//76 77//76 
f 41//76 39//76 77//76 
f 75//76 45//76 43//76 
f 49//76 47//76 75//76 
f 75//76 55//76 53//76 
f 59//76 57//76 75//76 
f 74//76 65//76 63//76 
f 74//76 69//76 67//76 
f 101//76 111//76 100//76 
f 103//76 89//76 85//76 
f 93//76 104//76 85//76 
f 108//76 106//76 83//76 
f 99//76 109//76 83//76 
f 77//76 21//76 19//76 
f 39//76 37//76 77//76 
f 47//76 45//76 75//76 
f 57//76 55//76 75//76 
f 67//76 65//76 74//76 
f 100//76 112//76 113//76 
f 100//76 114//76 115//76 
f 111//76 116//76 100//76 
f 85//76 117//76 118//76 
f 105//76 102//76 85//76 
f 110//76 96//76 83//76 
f 19//76 17//76 77//76 
f 77//76 25//76 23//76 
f 43//76 41//76 75//76 
f 63//76 61//76 74//76 
f 9//76 81//76 79//76 
f 115//76 112//76 100//76 
f 118//76 101//76 85//76 
f 107//76 94//76 83//76 
f 77//76 15//76 13//76 
f 23//76 21//76 77//76 
f 53//76 51//76 75//76 
f 9//76 83//76 81//76 
f 113//76 119//76 100//76 
f 92//76 117//76 85//76 
f 13//76 11//76 77//76 
f 27//76 25//76 77//76 
f 79//76 77//76 9//76 
f 116//76 114//76 100//76 
f 4//76 3//76 120//76 
f 17//76 15//76 77//76 
f 74//76 72//76 71//76 
f 9//76 7//76 83//76 
f 120//76 98//76 4//76 
f 71//76 69//76 74//76 
f 119//76 121//76 100//76 
f 7//76 4//76 83//76 
f 11//76 9//76 77//76 
o mesh10
f 122//77 1//77 84//77 
f 84//77 123//77 124//77 
f 86//77 125//77 123//77 
f 84//77 126//77 127//77 
f 84//77 128//77 129//77 
f 84//77 130//77 131//77 
f 123//77 84//77 86//77 
f 86//77 132//77 133//77 
f 86//77 134//77 135//77 
f 86//77 136//77 137//77 
f 76//77 56//77 58//77 
f 76//77 44//77 46//77 
f 129//77 126//77 84//77 
f 84//77 138//77 130//77 
f 133//77 125//77 86//77 
f 86//77 139//77 140//77 
f 137//77 134//77 86//77 
f 86//77 141//77 142//77 
f 143//77 144//77 145//77 
f 73//77 62//77 64//77 
f 73//77 58//77 60//77 
f 76//77 54//77 56//77 
f 76//77 42//77 44//77 
f 76//77 38//77 40//77 
f 78//77 36//77 38//77 
f 78//77 30//77 32//77 
f 78//77 26//77 28//77 
f 131//77 128//77 84//77 
f 84//77 146//77 147//77 
f 140//77 132//77 86//77 
f 142//77 136//77 86//77 
f 143//77 148//77 144//77 
f 60//77 62//77 73//77 
f 76//77 52//77 54//77 
f 40//77 42//77 76//77 
f 78//77 34//77 36//77 
f 28//77 30//77 78//77 
f 78//77 22//77 24//77 
f 147//77 138//77 84//77 
f 135//77 139//77 86//77 
f 86//77 145//77 149//77 
f 143//77 150//77 148//77 
f 143//77 151//77 152//77 
f 143//77 153//77 154//77 
f 58//77 73//77 76//77 
f 76//77 48//77 50//77 
f 38//77 76//77 78//77 
f 24//77 26//77 78//77 
f 78//77 14//77 16//77 
f 124//77 146//77 84//77 
f 145//77 86//77 143//77 
f 154//77 151//77 143//77 
f 6//77 78//77 80//77 
f 50//77 52//77 76//77 
f 32//77 34//77 78//77 
f 78//77 18//77 20//77 
f 78//77 12//77 14//77 
f 149//77 141//77 86//77 
f 143//77 155//77 153//77 
f 80//77 82//77 6//77 
f 46//77 48//77 76//77 
f 16//77 18//77 78//77 
f 78//77 6//77 8//77 
f 1//77 122//77 156//77 
f 152//77 150//77 143//77 
f 84//77 5//77 6//77 
f 20//77 22//77 78//77 
f 8//77 10//77 78//77 
f 84//77 127//77 122//77 
f 84//77 1//77 5//77 
f 73//77 66//77 68//77 
f 10//77 12//77 78//77 
f 82//77 84//77 6//77 
f 64//77 66//77 73//77 
f 68//77 70//77 73//77 
f 156//77 2//77 1//77 
o mesh11
f 100//78 143//78 86//78 
f 86//78 85//78 100//78 
o mesh12
f 100//79 121//79 155//79 
f 155//79 143//79 100//79 
o mesh13
f 153//80 155//81 121//81 
f 154//82 153//80 119//83 
f 151//84 154//82 113//85 
f 152//86 151//84 112//87 
f 150//88 152//86 115//89 
f 148//90 150//88 114//91 
f 144//92 148//90 116//93 
f 145//94 144//92 111//95 
f 149//96 145//94 101//97 
f 141//98 149//96 118//99 
f 142//100 141//98 117//101 
f 136//102 142//100 92//103 
f 137//104 136//102 91//105 
f 134//106 137//104 88//107 
f 135//108 134//106 87//109 
f 139//110 135//108 90//111 
f 140//112 139//110 89//113 
f 132//114 140//112 103//115 
f 133//116 132//114 102//117 
f 125//118 133//116 105//119 
f 123//120 125//118 104//121 
f 124//122 123//120 93//123 
f 146//124 124//122 95//125 
f 147//126 146//124 94//127 
f 138//128 147//126 107//129 
f 130//130 138//128 106//131 
f 131//132 130//130 108//133 
f 128//134 131//132 97//135 
f 129//136 128//134 96//137 
f 126//138 129//136 110//139 
f 127//140 126//138 109//141 
f 122//142 127//140 99//143 
f 156//144 122//142 98//145 
f 2//146 156//144 120//147 
f 120//147 3//146 2//146 
f 98//145 120//147 156//144 
f 99//143 98//145 122//142 
f 109//141 99//143 127//140 
f 110//139 109//141 126//138 
f 96//137 110//139 129//136 
f 97//135 96//137 128//134 
f 108//133 97//135 131//132 
f 106//131 108//133 130//130 
f 107//129 106//131 138//128 
f 94//127 107//129 147//126 
f 95//125 94//127 146//124 
f 93//123 95//125 124//122 
f 104//121 93//123 123//120 
f 105//119 104//121 125//118 
f 102//117 105//119 133//116 
f 103//115 102//117 132//114 
f 89//113 103//115 140//112 
f 90//111 89//113 139//110 
f 87//109 90//111 135//108 
f 88//107 87//109 134//106 
f 91//105 88//107 137//104 
f 92//103 91//105 136//102 
f 117//101 92//103 142//100 
f 118//99 117//101 141//98 
f 101//97 118//99 149//96 
f 111//95 101//97 145//94 
f 116//93 111//95 144//92 
f 114//91 116//93 148//90 
f 115//89 114//91 150//88 
f 112//87 115//89 152//86 
f 113//85 112//87 151//84 
f 119//83 113//85 154//82 
f 121//81 119//83 153//80 
g Part 2
v -0.756109 0.5 -0.107476 
v -0.766128 0.5 -0.106057 
v -0.775971 0.5 -0.103706 
v -0.785551 0.5 -0.100444 
v -0.794783 0.5 -0.0962988 
v -0.803586 0.5 -0.0913076 
v -0.811883 0.5 -0.0855139 
v -0.819601 0.5 -0.0789688 
v -0.826673 0.5 -0.0717297 
v -0.833035 0.5 -0.0638602 
v -0.838632 0.5 -0.0554295 
v -0.843416 0.5 -0.0465117 
v -0.847343 0.5 -0.0371852 
v -0.85038 0.5 -0.0275319 
v -0.8525 0.5 -0.0176366 
v -0.853683 0.5 -0.00758631 
v -0.85392 0.5 0.00253063 
v -0.853209 0.5 0.0126253 
v -0.851556 0.5 0.0226091 
v -0.848975 0.5 0.0323941 
v -0.845489 0.5 0.0418945 
v -0.841129 0.5 0.0510267 
v -0.835933 0.5 0.0597105 
v -0.829946 0.5 0.0678696 
v -0.823222 0.5 0.0754322 
v -0.815819 0.5 0.0823319 
v -0.807802 0.5 0.088508 
v -0.799243 0.5 0.0939064 
v -0.790215 0.5 0.0984795 
v -0.780799 0.5 0.102187 
v -0.771077 0.5 0.104997 
v -0.761135 0.5 0.106884 
v -0.75106 0.5 0.107831 
v -0.74094 0.5 0.107831 
v -0.730865 0.5 0.106884 
v -0.720923 0.5 0.104997 
v -0.711201 0.5 0.102187 
v -0.701785 0.5 0.0984795 
v -0.692757 0.5 0.0939064 
v -0.684198 0.5 0.088508 
v -0.676181 0.5 0.0823319 
v -0.668778 0.5 0.0754322 
v -0.662054 0.5 0.0678696 
v -0.656067 0.5 0.0597105 
v -0.650871 0.5 0.0510267 
v -0.646511 0.5 0.0418945 
v -0.643025 0.5 0.0323941 
v -0.640444 0.5 0.0226091 
v -0.638791 0.5 0.0126253 
v -0.63808 0.5 0.00253063 
v -0.638317 0.5 -0.00758631 
v -0.6395 0.5 -0.0176366 
v -0.64162 0.5 -0.0275319 
v -0.644657 0.5 -0.0371852 
v -0.648584 0.5 -0.0465117 
v -0.653368 0.5 -0.0554295 
v -0.658965 0.5 -0.0638602 
v -0.665327 0.5 -0.0717297 
v -0.672399 0.5 -0.0789688 
v -0.680117 0.5 -0.0855139 
v -0.688414 0.5 -0.0913076 
v -0.697217 0.5 -0.0962988 
v -0.706449 0.5 -0.100444 
v -0.716029 0.5 -0.103706 
v -0.725872 0.5 -0.106057 
v -0.735891 0.5 -0.107476 
v -0.746 0.5 -0.10795 
v -0.746 0.5 0 
v -0.746 -0.5 -0.10795 
v -0.735891 -0.5 -0.107476 
v -0.725872 -0.5 -0.106057 
v -0.716029 -0.5 -0.103706 
v -0.706449 -0.5 -0.100444 
v -0.697217 -0.5 -0.0962988 
v -0.688414 -0.5 -0.0913076 
v -0.680117 -0.5 -0.0855139 
v -0.672399 -0.5 -0.0789688 
v -0.665327 -0.5 -0.0717297 
v -0.658965 -0.5 -0.0638602 
v -0.653368 -0.5 -0.0554295 
v -0.648584 -0.5 -0.0465117 
v -0.644657 -0.5 -0.0371852 
v -0.64162 -0.5 -0.0275319 
v -0.6395 -0.5 -0.0176366 
v -0.63808 -0.5 0.00253063 
v -0.63805 -0.5 7.70372e-34 
v -0.638791 -0.5 0.0126253 
v -0.640444 -0.5 0.0226091 
v -0.643025 -0.5 0.0323941 
v -0.646511 -0.5 0.0418945 
v -0.650871 -0.5 0.0510267 
v -0.656067 -0.5 0.0597105 
v -0.662054 -0.5 0.0678696 
v -0.668778 -0.5 0.0754322 
v -0.676181 -0.5 0.0823319 
v -0.684198 -0.5 0.088508 
v -0.692757 -0.5 0.0939064 
v -0.701785 -0.5 0.0984795 
v -0.711201 -0.5 0.102187 
v -0.720923 -0.5 0.104997 
v -0.730865 -0.5 0.106884 
v -0.74094 -0.5 0.107831 
v -0.75106 -0.5 0.107831 
v -0.761135 -0.5 0.106884 
v -0.771077 -0.5 0.104997 
v -0.780799 -0.5 0.102187 
v -0.790215 -0.5 0.0984795 
v -0.799243 -0.5 0.0939064 
v -0.807802 -0.5 0.088508 
v -0.815819 -0.5 0.0823319 
v -0.823222 -0.5 0.0754322 
v -0.829946 -0.5 0.0678696 
v -0.835933 -0.5 0.0597105 
v -0.841129 -0.5 0.0510267 
v -0.845489 -0.5 0.0418945 
v -0.848975 -0.5 0.0323941 
v -0.851556 -0.5 0.0226091 
v -0.853209 -0.5 0.0126253 
v -0.85392 -0.5 0.00253063 
v -0.853683 -0.5 -0.00758631 
v -0.8525 -0.5 -0.0176366 
v -0.85038 -0.5 -0.0275319 
v -0.847343 -0.5 -0.0371852 
v -0.843416 -0.5 -0.0465117 
v -0.838632 -0.5 -0.0554295 
v -0.833035 -0.5 -0.0638602 
v -0.826673 -0.5 -0.0717297 
v -0.819601 -0.5 -0.0789688 
v -0.811883 -0.5 -0.0855139 
v -0.803586 -0.5 -0.0913076 
v -0.794783 -0.5 -0.0962988 
v -0.785551 -0.5 -0.100444 
v -0.775971 -0.5 -0.103706 
v -0.766128 -0.5 -0.106057 
v -0.756109 -0.5 -0.107476 
v -0.638317 -0.5 -0.00758631 
v -0.746 -0.5 0 
vn 0 1 0 
vn 0 0 -1 
vn 0.0936415 0 -0.995606 
vn 0.18646 0 -0.982463 
vn 0.27764 0 -0.960685 
vn 0.36638 0 -0.930465 
vn 0.4519 0 -0.892068 
vn 0.533449 0 -0.845832 
vn 0.61031 0 -0.792162 
vn 0.681808 0 -0.731531 
vn 0.747314 0 -0.664471 
vn 0.806252 0 -0.591572 
vn 0.858105 0 -0.513474 
vn 0.902417 0 -0.430864 
vn 0.938798 0 -0.344467 
vn 0.96693 0 -0.255043 
vn 0.986564 0 -0.163377 
vn 0.997528 0 -0.0702762 
vn 0.999725 0 0.0234426 
vn 1 0 -6.12323e-17 
vn 0.993137 0 0.116955 
vn 0.977821 0 0.20944 
vn 0.953913 0 0.300085 
vn 0.921621 0 0.388092 
vn 0.88123 0 0.472689 
vn 0.833094 0 0.553131 
vn 0.777638 0 0.628713 
vn 0.715347 0 0.698769 
vn 0.64677 0 0.762685 
vn 0.572509 0 0.819898 
vn 0.493217 0 0.869906 
vn 0.40959 0 0.91227 
vn 0.322364 0 0.946616 
vn 0.232305 0 0.972643 
vn 0.140205 0 0.990123 
vn 0.0468723 0 0.998901 
vn -0.0468723 0 0.998901 
vn -0.140205 0 0.990123 
vn -0.232305 0 0.972643 
vn -0.322364 0 0.946616 
vn -0.40959 0 0.91227 
vn -0.493217 0 0.869906 
vn -0.572509 0 0.819898 
vn -0.64677 0 0.762685 
vn -0.715347 0 0.698769 
vn -0.777638 0 0.628713 
vn -0.833094 0 0.553131 
vn -0.88123 0 0.472689 
vn -0.921621 0 0.388092 
vn -0.953913 0 0.300085 
vn -0.977821 0 0.20944 
vn -0.993137 0 0.116955 
vn -0.999725 0 0.0234426 
vn -0.997528 0 -0.0702762 
vn -0.986564 0 -0.163377 
vn -0.96693 0 -0.255043 
vn -0.938798 0 -0.344467 
vn -0.902417 0 -0.430864 
vn -0.858105 0 -0.513474 
vn -0.806252 0 -0.591572 
vn -0.747314 0 -0.664471 
vn -0.681808 0 -0.731531 
vn -0.61031 0 -0.792162 
vn -0.533449 0 -0.845832 
vn -0.4519 0 -0.892068 
vn -0.36638 0 -0.930465 
vn -0.27764 0 -0.960685 
vn -0.18646 0 -0.982463 
vn -0.0936415 0 -0.995606 
vn 0.997528 0 -0.0702762 
vn 0 -1 0 
usemtl 0.647059_0.647059_0.647059_0.000000_0.000000
o mesh14
f 224//148 157//148 158//148 
f 158//148 159//148 224//148 
f 159//148 160//148 224//148 
f 160//148 161//148 224//148 
f 161//148 162//148 224//148 
f 162//148 163//148 224//148 
f 163//148 164//148 224//148 
f 164//148 165//148 224//148 
f 165//148 166//148 224//148 
f 166//148 167//148 224//148 
f 167//148 168//148 224//148 
f 168//148 169//148 224//148 
f 169//148 170//148 224//148 
f 170//148 171//148 224//148 
f 171//148 172//148 224//148 
f 172//148 173//148 224//148 
f 173//148 174//148 224//148 
f 174//148 175//148 224//148 
f 175//148 176//148 224//148 
f 176//148 177//148 224//148 
f 177//148 178//148 224//148 
f 178//148 179//148 224//148 
f 179//148 180//148 224//148 
f 180//148 181//148 224//148 
f 181//148 182//148 224//148 
f 182//148 183//148 224//148 
f 183//148 184//148 224//148 
f 184//148 185//148 224//148 
f 185//148 186//148 224//148 
f 186//148 187//148 224//148 
f 187//148 188//148 224//148 
f 188//148 189//148 224//148 
f 189//148 190//148 224//148 
f 190//148 191//148 224//148 
f 191//148 192//148 224//148 
f 192//148 193//148 224//148 
f 193//148 194//148 224//148 
f 194//148 195//148 224//148 
f 195//148 196//148 224//148 
f 196//148 197//148 224//148 
f 197//148 198//148 224//148 
f 198//148 199//148 224//148 
f 199//148 200//148 224//148 
f 200//148 201//148 224//148 
f 201//148 202//148 224//148 
f 202//148 203//148 224//148 
f 203//148 204//148 224//148 
f 204//148 205//148 224//148 
f 205//148 206//148 224//148 
f 206//148 207//148 224//148 
f 207//148 208//148 224//148 
f 208//148 209//148 224//148 
f 209//148 210//148 224//148 
f 210//148 211//148 224//148 
f 211//148 212//148 224//148 
f 212//148 213//148 224//148 
f 213//148 214//148 224//148 
f 214//148 215//148 224//148 
f 215//148 216//148 224//148 
f 216//148 217//148 224//148 
f 217//148 218//148 224//148 
f 218//148 219//148 224//148 
f 219//148 220//148 224//148 
f 220//148 221//148 224//148 
f 221//148 222//148 224//148 
f 222//148 223//148 224//148 
f 223//148 157//148 224//148 
o mesh15
f 225//149 223//149 222//150 
f 226//150 222//150 221//151 
f 227//151 221//151 220//152 
f 228//152 220//152 219//153 
f 229//153 219//153 218//154 
f 230//154 218//154 217//155 
f 231//155 217//155 216//156 
f 232//156 216//156 215//157 
f 233//157 215//157 214//158 
f 234//158 214//158 213//159 
f 235//159 213//159 212//160 
f 236//160 212//160 211//161 
f 237//161 211//161 210//162 
f 238//162 210//162 209//163 
f 239//163 209//163 208//164 
f 240//164 208//164 207//165 
f 206//166 241//166 242//167 
f 242//167 207//165 206//166 
f 241//166 206//166 205//168 
f 243//168 205//168 204//169 
f 244//169 204//169 203//170 
f 245//170 203//170 202//171 
f 246//171 202//171 201//172 
f 247//172 201//172 200//173 
f 248//173 200//173 199//174 
f 249//174 199//174 198//175 
f 250//175 198//175 197//176 
f 251//176 197//176 196//177 
f 252//177 196//177 195//178 
f 253//178 195//178 194//179 
f 254//179 194//179 193//180 
f 255//180 193//180 192//181 
f 256//181 192//181 191//182 
f 257//182 191//182 190//183 
f 258//183 190//183 189//184 
f 259//184 189//184 188//185 
f 260//185 188//185 187//186 
f 261//186 187//186 186//187 
f 262//187 186//187 185//188 
f 263//188 185//188 184//189 
f 264//189 184//189 183//190 
f 265//190 183//190 182//191 
f 266//191 182//191 181//192 
f 267//192 181//192 180//193 
f 268//193 180//193 179//194 
f 269//194 179//194 178//195 
f 270//195 178//195 177//196 
f 271//196 177//196 176//197 
f 272//197 176//197 175//198 
f 273//198 175//198 174//199 
f 274//199 174//199 173//200 
f 275//200 173//200 172//201 
f 276//201 172//201 171//202 
f 277//202 171//202 170//203 
f 278//203 170//203 169//204 
f 279//204 169//204 168//205 
f 280//205 168//205 167//206 
f 281//206 167//206 166//207 
f 282//207 166//207 165//208 
f 283//208 165//208 164//209 
f 284//209 164//209 163//210 
f 285//210 163//210 162//211 
f 286//211 162//211 161//212 
f 287//212 161//212 160//213 
f 288//213 160//213 159//214 
f 289//214 159//214 158//215 
f 290//215 158//215 157//216 
f 291//216 157//216 223//149 
f 223//149 225//149 291//216 
f 157//216 291//216 290//215 
f 158//215 290//215 289//214 
f 159//214 289//214 288//213 
f 160//213 288//213 287//212 
f 161//212 287//212 286//211 
f 162//211 286//211 285//210 
f 163//210 285//210 284//209 
f 164//209 284//209 283//208 
f 165//208 283//208 282//207 
f 166//207 282//207 281//206 
f 167//206 281//206 280//205 
f 168//205 280//205 279//204 
f 169//204 279//204 278//203 
f 170//203 278//203 277//202 
f 171//202 277//202 276//201 
f 172//201 276//201 275//200 
f 173//200 275//200 274//199 
f 174//199 274//199 273//198 
f 175//198 273//198 272//197 
f 176//197 272//197 271//196 
f 177//196 271//196 270//195 
f 178//195 270//195 269//194 
f 179//194 269//194 268//193 
f 180//193 268//193 267//192 
f 181//192 267//192 266//191 
f 182//191 266//191 265//190 
f 183//190 265//190 264//189 
f 184//189 264//189 263//188 
f 185//188 263//188 262//187 
f 186//187 262//187 261//186 
f 187//186 261//186 260//185 
f 188//185 260//185 259//184 
f 189//184 259//184 258//183 
f 190//183 258//183 257//182 
f 191//182 257//182 256//181 
f 192//181 256//181 255//180 
f 193//180 255//180 254//179 
f 194//179 254//179 253//178 
f 195//178 253//178 252//177 
f 196//177 252//177 251//176 
f 197//176 251//176 250//175 
f 198//175 250//175 249//174 
f 199//174 249//174 248//173 
f 200//173 248//173 247//172 
f 201//172 247//172 246//171 
f 202//171 246//171 245//170 
f 203//170 245//170 244//169 
f 204//169 244//169 243//168 
f 205//168 243//168 241//166 
f 242//167 292//217 207//165 
f 207//165 292//217 240//164 
f 208//164 240//164 239//163 
f 209//163 239//163 238//162 
f 210//162 238//162 237//161 
f 211//161 237//161 236//160 
f 212//160 236//160 235//159 
f 213//159 235//159 234//158 
f 214//158 234//158 233//157 
f 215//157 233//157 232//156 
f 216//156 232//156 231//155 
f 217//155 231//155 230//154 
f 218//154 230//154 229//153 
f 219//153 229//153 228//152 
f 220//152 228//152 227//151 
f 221//151 227//151 226//150 
f 222//150 226//150 225//149 
o mesh16
f 293//218 241//218 243//218 
f 243//218 244//218 293//218 
f 244//218 245//218 293//218 
f 245//218 246//218 293//218 
f 246//218 247//218 293//218 
f 247//218 248//218 293//218 
f 248//218 249//218 293//218 
f 249//218 250//218 293//218 
f 250//218 251//218 293//218 
f 251//218 252//218 293//218 
f 252//218 253//218 293//218 
f 253//218 254//218 293//218 
f 254//218 255//218 293//218 
f 255//218 256//218 293//218 
f 256//218 257//218 293//218 
f 257//218 258//218 293//218 
f 258//218 259//218 293//218 
f 259//218 260//218 293//218 
f 260//218 261//218 293//218 
f 261//218 262//218 293//218 
f 262//218 263//218 293//218 
f 263//218 264//218 293//218 
f 264//218 265//218 293//218 
f 265//218 266//218 293//218 
f 266//218 267//218 293//218 
f 267//218 268//218 293//218 
f 268//218 269//218 293//218 
f 269//218 270//218 293//218 
f 270//218 271//218 293//218 
f 271//218 272//218 293//218 
f 272//218 273//218 293//218 
f 273//218 274//218 293//218 
f 274//218 275//218 293//218 
f 275//218 276//218 293//218 
f 276//218 277//218 293//218 
f 277//218 278//218 293//218 
f 278//218 279//218 293//218 
f 279//218 280//218 293//218 
f 280//218 281//218 293//218 
f 281//218 282//218 293//218 
f 282//218 283//218 293//218 
f 283//218 284//218 293//218 
f 284//218 285//218 293//218 
f 285//218 286//218 293//218 
f 286//218 287//218 293//218 
f 287//218 288//218 293//218 
f 288//218 289//218 293//218 
f 289//218 290//218 293//218 
f 290//218 291//218 293//218 
f 291//218 225//218 293//218 
f 225//218 226//218 293//218 
f 226//218 227//218 293//218 
f 227//218 228//218 293//218 
f 228//218 229//218 293//218 
f 229//218 230//218 293//218 
f 230//218 231//218 293//218 
f 231//218 232//218 293//218 
f 232//218 233//218 293//218 
f 233//218 234//218 293//218 
f 234//218 235//218 293//218 
f 235//218 236//218 293//218 
f 236//218 237//218 293//218 
f 237//218 238//218 293//218 
f 238//218 239//218 293//218 
f 239//218 240//218 293//218 
f 240//218 292//218 293//218 
f 292//218 242//218 293//218 
f 242//218 241//218 293//218 
g Part 3
v 0.735891 0.5 -0.107476 
v 0.725872 0.5 -0.106057 
v 0.716029 0.5 -0.103706 
v 0.706449 0.5 -0.100444 
v 0.697217 0.5 -0.0962988 
v 0.688414 0.5 -0.0913076 
v 0.680117 0.5 -0.0855139 
v 0.672399 0.5 -0.0789688 
v 0.665327 0.5 -0.0717297 
v 0.658965 0.5 -0.0638602 
v 0.653368 0.5 -0.0554295 
v 0.648584 0.5 -0.0465117 
v 0.644657 0.5 -0.0371852 
v 0.64162 0.5 -0.0275319 
v 0.6395 0.5 -0.0176366 
v 0.638317 0.5 -0.00758631 
v 0.63808 0.5 0.00253063 
v 0.638791 0.5 0.0126253 
v 0.640444 0.5 0.0226091 
v 0.643025 0.5 0.0323941 
v 0.646511 0.5 0.0418945 
v 0.650871 0.5 0.0510267 
v 0.656067 0.5 0.0597105 
v 0.662054 0.5 0.0678696 
v 0.668778 0.5 0.0754322 
v 0.676181 0.5 0.0823319 
v 0.684198 0.5 0.088508 
v 0.692757 0.5 0.0939064 
v 0.701785 0.5 0.0984795 
v 0.711201 0.5 0.102187 
v 0.720923 0.5 0.104997 
v 0.730865 0.5 0.106884 
v 0.74094 0.5 0.107831 
v 0.75106 0.5 0.107831 
v 0.761135 0.5 0.106884 
v 0.771077 0.5 0.104997 
v 0.780799 0.5 0.102187 
v 0.790215 0.5 0.0984795 
v 0.799243 0.5 0.0939064 
v 0.807802 0.5 0.088508 
v 0.815819 0.5 0.0823319 
v 0.823222 0.5 0.0754322 
v 0.829946 0.5 0.0678696 
v 0.835933 0.5 0.0597105 
v 0.841129 0.5 0.0510267 
v 0.845489 0.5 0.0418945 
v 0.848975 0.5 0.0323941 
v 0.851556 0.5 0.0226091 
v 0.853209 0.5 0.0126253 
v 0.85392 0.5 0.00253063 
v 0.853683 0.5 -0.00758631 
v 0.8525 0.5 -0.0176366 
v 0.85038 0.5 -0.0275319 
v 0.847343 0.5 -0.0371852 
v 0.843416 0.5 -0.0465117 
v 0.838632 0.5 -0.0554295 
v 0.833035 0.5 -0.0638602 
v 0.826673 0.5 -0.0717297 
v 0.819601 0.5 -0.0789688 
v 0.811883 0.5 -0.0855139 
v 0.803586 0.5 -0.0913076 
v 0.794783 0.5 -0.0962988 
v 0.785551 0.5 -0.100444 
v 0.775971 0.5 -0.103706 
v 0.766128 0.5 -0.106057 
v 0.756109 0.5 -0.107476 
v 0.746 0.5 -0.10795 
v 0.746 0.5 0 
v 0.746 -0.5 -0.10795 
v 0.756109 -0.5 -0.107476 
v 0.766128 -0.5 -0.106057 
v 0.775971 -0.5 -0.103706 
v 0.785551 -0.5 -0.100444 
v 0.794783 -0.5 -0.0962988 
v 0.803586 -0.5 -0.0913076 
v 0.811883 -0.5 -0.0855139 
v 0.819601 -0.5 -0.0789688 
v 0.826673 -0.5 -0.0717297 
v 0.833035 -0.5 -0.0638602 
v 0.838632 -0.5 -0.0554295 
v 0.843416 -0.5 -0.0465117 
v 0.847343 -0.5 -0.0371852 
v 0.85038 -0.5 -0.0275319 
v 0.8525 -0.5 -0.0176366 
v 0.85392 -0.5 0.00253063 
v 0.85395 -0.5 7.70372e-34 
v 0.853209 -0.5 0.0126253 
v 0.851556 -0.5 0.0226091 
v 0.848975 -0.5 0.0323941 
v 0.845489 -0.5 0.0418945 
v 0.841129 -0.5 0.0510267 
v 0.835933 -0.5 0.0597105 
v 0.829946 -0.5 0.0678696 
v 0.823222 -0.5 0.0754322 
v 0.815819 -0.5 0.0823319 
v 0.807802 -0.5 0.088508 
v 0.799243 -0.5 0.0939064 
v 0.790215 -0.5 0.0984795 
v 0.780799 -0.5 0.102187 
v 0.771077 -0.5 0.104997 
v 0.761135 -0.5 0.106884 
v 0.75106 -0.5 0.107831 
v 0.74094 -0.5 0.107831 
v 0.730865 -0.5 0.106884 
v 0.720923 -0.5 0.104997 
v 0.711201 -0.5 0.102187 
v 0.701785 -0.5 0.0984795 
v 0.692757 -0.5 0.0939064 
v 0.684198 -0.5 0.088508 
v 0.676181 -0.5 0.0823319 
v 0.668778 -0.5 0.0754322 
v 0.662054 -0.5 0.0678696 
v 0.656067 -0.5 0.0597105 
v 0.650871 -0.5 0.0510267 
v 0.646511 -0.5 0.0418945 
v 0.643025 -0.5 0.0323941 
v 0.640444 -0.5 0.0226091 
v 0.638791 -0.5 0.0126253 
v 0.63808 -0.5 0.00253063 
v 0.638317 -0.5 -0.00758631 
v 0.6395 -0.5 -0.0176366 
v 0.64162 -0.5 -0.0275319 
v 0.644657 -0.5 -0.0371852 
v 0.648584 -0.5 -0.0465117 
v 0.653368 -0.5 -0.0554295 
v 0.658965 -0.5 -0.0638602 
v 0.665327 -0.5 -0.0717297 
v 0.672399 -0.5 -0.0789688 
v 0.680117 -0.5 -0.0855139 
v 0.688414 -0.5 -0.0913076 
v 0.697217 -0.5 -0.0962988 
v 0.706449 -0.5 -0.100444 
v 0.716029 -0.5 -0.103706 
v 0.725872 -0.5 -0.106057 
v 0.735891 -0.5 -0.107476 
v 0.853683 -0.5 -0.00758631 
v 0.746 -0.5 0 
vn 0 1 0 
vn 0 0 -1 
vn 0.0936415 0 -0.995606 
vn 0.18646 0 -0.982463 
vn 0.27764 0 -0.960685 
vn 0.36638 0 -0.930465 
vn 0.4519 0 -0.892068 
vn 0.533449 0 -0.845832 
vn 0.61031 0 -0.792162 
vn 0.681808 0 -0.731531 
vn 0.747314 0 -0.664471 
vn 0.806252 0 -0.591572 
vn 0.858105 0 -0.513474 
vn 0.902417 0 -0.430864 
vn 0.938798 0 -0.344467 
vn 0.96693 0 -0.255043 
vn 0.986564 0 -0.163377 
vn 0.997528 0 -0.0702762 
vn 0.999725 0 0.0234426 
vn 1 0 -6.12323e-17 
vn 0.993137 0 0.116955 
vn 0.977821 0 0.20944 
vn 0.953913 0 0.300085 
vn 0.921621 0 0.388092 
vn 0.88123 0 0.472689 
vn 0.833094 0 0.553131 
vn 0.777638 0 0.628713 
vn 0.715347 0 0.698769 
vn 0.64677 0 0.762685 
vn 0.572509 0 0.819898 
vn 0.493217 0 0.869906 
vn 0.40959 0 0.91227 
vn 0.322364 0 0.946616 
vn 0.232305 0 0.972643 
vn 0.140205 0 0.990123 
vn 0.0468723 0 0.998901 
vn -0.0468723 0 0.998901 
vn -0.140205 0 0.990123 
vn -0.232305 0 0.972643 
vn -0.322364 0 0.946616 
vn -0.40959 0 0.91227 
vn -0.493217 0 0.869906 
vn -0.572509 0 0.819898 
vn -0.64677 0 0.762685 
vn -0.715347 0 0.698769 
vn -0.777638 0 0.628713 
vn -0.833094 0 0.553131 
vn -0.88123 0 0.472689 
vn -0.921621 0 0.388092 
vn -0.953913 0 0.300085 
vn -0.977821 0 0.20944 
vn -0.993137 0 0.116955 
vn -0.999725 0 0.0234426 
vn -0.997528 0 -0.0702762 
vn -0.986564 0 -0.163377 
vn -0.96693 0 -0.255043 
vn -0.938798 0 -0.344467 
vn -0.902417 0 -0.430864 
vn -0.858105 0 -0.513474 
vn -0.806252 0 -0.591572 
vn -0.747314 0 -0.664471 
vn -0.681808 0 -0.731531 
vn -0.61031 0 -0.792162 
vn -0.533449 0 -0.845832 
vn -0.4519 0 -0.892068 
vn -0.36638 0 -0.930465 
vn -0.27764 0 -0.960685 
vn -0.18646 0 -0.982463 
vn -0.0936415 0 -0.995606 
vn 0.997528 0 -0.0702762 
vn 0 -1 0 
usemtl 0.231373_0.380392_0.705882_0.000000_0.000000
o mesh17
f 361//219 294//219 295//219 
f 295//219 296//219 361//219 
f 296//219 297//219 361//219 
f 297//219 298//219 361//219 
f 298//219 299//219 361//219 
f 299//219 300//219 361//219 
f 300//219 301//219 361//219 
f 301//219 302//219 361//219 
f 302//219 303//219 361//219 
f 303//219 304//219 361//219 
f 304//219 305//219 361//219 
f 305//219 306//219 361//219 
f 306//219 307//219 361//219 
f 307//219 308//219 361//219 
f 308//219 309//219 361//219 
f 309//219 310//219 361//219 
f 310//219 311//219 361//219 
f 311//219 312//219 361//219 
f 312//219 313//219 361//219 
f 313//219 314//219 361//219 
f 314//219 315//219 361//219 
f 315//219 316//219 361//219 
f 316//219 317//219 361//219 
f 317//219 318//219 361//219 
f 318//219 319//219 361//219 
f 319//219 320//219 361//219 
f 320//219 321//219 361//219 
f 321//219 322//219 361//219 
f 322//219 323//219 361//219 
f 323//219 324//219 361//219 
f 324//219 325//219 361//219 
f 325//219 326//219 361//219 
f 326//219 327//219 361//219 
f 327//219 328//219 361//219 
f 328//219 329//219 361//219 
f 329//219 330//219 361//219 
f 330//219 331//219 361//219 
f 331//219 332//219 361//219 
f 332//219 333//219 361//219 
f 333//219 334//219 361//219 
f 334//219 335//219 361//219 
f 335//219 336//219 361//219 
f 336//219 337//219 361//219 
f 337//219 338//219 361//219 
f 338//219 339//219 361//219 
f 339//219 340//219 361//219 
f 340//219 341//219 361//219 
f 341//219 342//219 361//219 
f 342//219 343//219 361//219 
f 343//219 344//219 361//219 
f 344//219 345//219 361//219 
f 345//219 346//219 361//219 
f 346//219 347//219 361//219 
f 347//219 348//219 361//219 
f 348//219 349//219 361//219 
f 349//219 350//219 361//219 
f 350//219 351//219 361//219 
f 351//219 352//219 361//219 
f 352//219 353//219 361//219 
f 353//219 354//219 361//219 
f 354//219 355//219 361//219 
f 355//219 356//219 361//219 
f 356//219 357//219 361//219 
f 357//219 358//219 361//219 
f 358//219 359//219 361//219 
f 359//219 360//219 361//219 
f 360//219 294//219 361//219 
o mesh18
f 362//220 360//220 359//221 
f 363//221 359//221 358//222 
f 364//222 358//222 357//223 
f 365//223 357//223 356//224 
f 366//224 356//224 355//225 
f 367//225 355//225 354//226 
f 368//226 354//226 353//227 
f 369//227 353//227 352//228 
f 370//228 352//228 351//229 
f 371//229 351//229 350//230 
f 372//230 350//230 349//231 
f 373//231 349//231 348//232 
f 374//232 348//232 347//233 
f 375//233 347//233 346//234 
f 376//234 346//234 345//235 
f 377//235 345//235 344//236 
f 343//237 378//237 379//238 
f 379//238 344//236 343//237 
f 378//237 343//237 342//239 
f 380//239 342//239 341//240 
f 381//240 341//240 340//241 
f 382//241 340//241 339//242 
f 383//242 339//242 338//243 
f 384//243 338//243 337//244 
f 385//244 337//244 336//245 
f 386//245 336//245 335//246 
f 387//246 335//246 334//247 
f 388//247 334//247 333//248 
f 389//248 333//248 332//249 
f 390//249 332//249 331//250 
f 391//250 331//250 330//251 
f 392//251 330//251 329//252 
f 393//252 329//252 328//253 
f 394//253 328//253 327//254 
f 395//254 327//254 326//255 
f 396//255 326//255 325//256 
f 397//256 325//256 324//257 
f 398//257 324//257 323//258 
f 399//258 323//258 322//259 
f 400//259 322//259 321//260 
f 401//260 321//260 320//261 
f 402//261 320//261 319//262 
f 403//262 319//262 318//263 
f 404//263 318//263 317//264 
f 405//264 317//264 316//265 
f 406//265 316//265 315//266 
f 407//266 315//266 314//267 
f 408//267 314//267 313//268 
f 409//268 313//268 312//269 
f 410//269 312//269 311//270 
f 411//270 311//270 310//271 
f 412//271 310//271 309//272 
f 413//272 309//272 308//273 
f 414//273 308//273 307//274 
f 415//274 307//274 306//275 
f 416//275 306//275 305//276 
f 417//276 305//276 304//277 
f 418//277 304//277 303//278 
f 419//278 303//278 302//279 
f 420//279 302//279 301//280 
f 421//280 301//280 300//281 
f 422//281 300//281 299//282 
f 423//282 299//282 298//283 
f 424//283 298//283 297//284 
f 425//284 297//284 296//285 
f 426//285 296//285 295//286 
f 427//286 295//286 294//287 
f 428//287 294//287 360//220 
f 360//220 362//220 428//287 
f 294//287 428//287 427//286 
f 295//286 427//286 426//285 
f 296//285 426//285 425//284 
f 297//284 425//284 424//283 
f 298//283 424//283 423//282 
f 299//282 423//282 422//281 
f 300//281 422//281 421//280 
f 301//280 421//280 420//279 
f 302//279 420//279 419//278 
f 303//278 419//278 418//277 
f 304//277 418//277 417//276 
f 305//276 417//276 416//275 
f 306//275 416//275 415//274 
f 307//274 415//274 414//273 
f 308//273 414//273 413//272 
f 309//272 413//272 412//271 
f 310//271 412//271 411//270 
f 311//270 411//270 410//269 
f 312//269 410//269 409//268 
f 313//268 409//268 408//267 
f 314//267 408//267 407//266 
f 315//266 407//266 406//265 
f 316//265 406//265 405//264 
f 317//264 405//264 404//263 
f 318//263 404//263 403//262 
f 319//262 403//262 402//261 
f 320//261 402//261 401//260 
f 321//260 401//260 400//259 
f 322//259 400//259 399//258 
f 323//258 399//258 398//257 
f 324//257 398//257 397//256 
f 325//256 397//256 396//255 
f 326//255 396//255 395//254 
f 327//254 395//254 394//253 
f 328//253 394//253 393//252 
f 329//252 393//252 392//251 
f 330//251 392//251 391//250 
f 331//250 391//250 390//249 
f 332//249 390//249 389//248 
f 333//248 389//248 388//247 
f 334//247 388//247 387//246 
f 335//246 387//246 386//245 
f 336//245 386//245 385//244 
f 337//244 385//244 384//243 
f 338//243 384//243 383//242 
f 339//242 383//242 382//241 
f 340//241 382//241 381//240 
f 341//240 381//240 380//239 
f 342//239 380//239 378//237 
f 379//238 429//288 344//236 
f 344//236 429//288 377//235 
f 345//235 377//235 376//234 
f 346//234 376//234 375//233 
f 347//233 375//233 374//232 
f 348//232 374//232 373//231 
f 349//231 373//231 372//230 
f 350//230 372//230 371//229 
f 351//229 371//229 370//228 
f 352//228 370//228 369//227 
f 353//227 369//227 368//226 
f 354//226 368//226 367//225 
f 355//225 367//225 366//224 
f 356//224 366//224 365//223 
f 357//223 365//223 364//222 
f 358//222 364//222 363//221 
f 359//221 363//221 362//220 
o mesh19
f 430//289 378//289 380//289 
f 380//289 381//289 430//289 
f 381//289 382//289 430//289 
f 382//289 383//289 430//289 
f 383//289 384//289 430//289 
f 384//289 385//289 430//289 
f 385//289 386//289 430//289 
f 386//289 387//289 430//289 
f 387//289 388//289 430//289 
f 388//289 389//289 430//289 
f 389//289 390//289 430//289 
f 390//289 391//289 430//289 
f 391//289 392//289 430//289 
f 392//289 393//289 430//289 
f 393//289 394//289 430//289 
f 394//289 395//289 430//289 
f 395//289 396//289 430//289 
f 396//289 397//289 430//289 
f 397//289 398//289 430//289 
f 398//289 399//289 430//289 
f 399//289 400//289 430//289 
f 400//289 401//289 430//289 
f 401//289 402//289 430//289 
f 402//289 403//289 430//289 
f 403//289 404//289 430//289 
f 404//289 405//289 430//289 
f 405//289 406//289 430//289 
f 406//289 407//289 430//289 
f 407//289 408//289 430//289 
f 408//289 409//289 430//289 
f 409//289 410//289 430//289 
f 410//289 411//289 430//289 
f 411//289 412//289 430//289 
f 412//289 413//289 430//289 
f 413//289 414//289 430//289 
f 414//289 415//289 430//289 
f 415//289 416//289 430//289 
f 416//289 417//289 430//289 
f 417//289 418//289 430//289 
f 418//289 419//289 430//289 
f 419//289 420//289 430//289 
f 420//289 421//289 430//289 
f 421//289 422//289 430//289 
f 422//289 423//289 430//289 
f 423//289 424//289 430//289 
f 424//289 425//289 430//289 
f 425//289 426//289 430//289 
f 426//289 427//289 430//289 
f 427//289 428//289 430//289 
f 428//289 362//289 430//289 
f 362//289 363//289 430//289 
f 363//289 364//289 430//289 
f 364//289 365//289 430//289 
f 365//289 366//289 430//289 
f 366//289 367//289 430//289 
f 367//289 368//289 430//289 
f 368//289 369//289 430//289 
f 369//289 370//289 430//289 
f 370//289 371//289 430//289 
f 371//289 372//289 430//289 
f 372//289 373//289 430//289 
f 373//289 374//289 430//289 
f 374//289 375//289 430//289 
f 375//289 376//289 430//289 
f 376//289 377//289 430//289 
f 377//289 429//289 430//289 
f 429//289 379//289 430//289 
f 379//289 378//289 430//289 
